<svg width="54" height="19" viewBox="0 0 54 19" fill="none" xmlns="http://www.w3.org/2000/svg">
<path d="M18.5977 15.8242L15.082 12.3086C14.9062 12.168 14.6953 12.0625 14.4844 12.0625H13.9219C14.8711 10.832 15.4688 9.28516 15.4688 7.5625C15.4688 3.55469 12.1641 0.25 8.15625 0.25C4.11328 0.25 0.84375 3.55469 0.84375 7.5625C0.84375 11.6055 4.11328 14.875 8.15625 14.875C9.84375 14.875 11.3906 14.3125 12.6562 13.3281V13.9258C12.6562 14.1367 12.7266 14.3477 12.9023 14.5234L16.3828 18.0039C16.7344 18.3555 17.2617 18.3555 17.5781 18.0039L18.5625 17.0195C18.9141 16.7031 18.9141 16.1758 18.5977 15.8242ZM8.15625 12.0625C5.66016 12.0625 3.65625 10.0586 3.65625 7.5625C3.65625 5.10156 5.66016 3.0625 8.15625 3.0625C10.6172 3.0625 12.6562 5.10156 12.6562 7.5625C12.6562 10.0586 10.6172 12.0625 8.15625 12.0625ZM51.4688 10.8672L53.1211 3.55469C53.2266 3.02734 52.8398 2.5 52.2773 2.5H38.4961L38.1797 0.953125C38.0742 0.566406 37.7227 0.25 37.3359 0.25H33.75C33.2578 0.25 32.9062 0.636719 32.9062 1.09375V1.65625C32.9062 2.14844 33.2578 2.5 33.75 2.5H36.1758L38.6719 14.5938C38.0742 14.9453 37.6875 15.5781 37.6875 16.2812C37.6875 17.3711 38.5664 18.25 39.6562 18.25C40.7109 18.25 41.625 17.3711 41.625 16.2812C41.625 15.7539 41.3789 15.2617 41.0273 14.875H48.375C48.0234 15.2617 47.8125 15.7539 47.8125 16.2812C47.8125 17.3711 48.6914 18.25 49.7812 18.25C50.8359 18.25 51.75 17.3711 51.75 16.2812C51.75 15.5078 51.293 14.8398 50.625 14.5234L50.8008 13.6797C50.9414 13.1523 50.5195 12.625 49.9922 12.625H40.5703L40.3242 11.5H50.625C51.0117 11.5 51.3633 11.2539 51.4688 10.8672Z" fill="white"/>
</svg>
