<svg width="13" height="13" viewBox="0 0 13 13" fill="none" xmlns="http://www.w3.org/2000/svg">
<path d="M9.334 7.8C9.386 7.371 9.425 6.942 9.425 6.5C9.425 6.058 9.386 5.629 9.334 5.2H11.531C11.635 5.616 11.7 6.0515 11.7 6.5C11.7 6.9485 11.635 7.384 11.531 7.8H9.334ZM8.1835 11.414C8.5735 10.6925 8.8725 9.9125 9.0805 9.1H10.998C10.3683 10.1844 9.36917 11.0058 8.1835 11.414ZM8.021 7.8H4.979C4.914 7.371 4.875 6.942 4.875 6.5C4.875 6.058 4.914 5.6225 4.979 5.2H8.021C8.0795 5.6225 8.125 6.058 8.125 6.5C8.125 6.942 8.0795 7.371 8.021 7.8ZM6.5 11.674C5.9605 10.894 5.525 10.0295 5.2585 9.1H7.7415C7.475 10.0295 7.0395 10.894 6.5 11.674ZM3.9 3.9H2.002C2.62526 2.81269 3.62362 1.98997 4.81 1.586C4.42 2.3075 4.1275 3.0875 3.9 3.9ZM2.002 9.1H3.9C4.1275 9.9125 4.42 10.6925 4.81 11.414C3.62611 11.0056 2.62915 10.184 2.002 9.1ZM1.469 7.8C1.365 7.384 1.3 6.9485 1.3 6.5C1.3 6.0515 1.365 5.616 1.469 5.2H3.666C3.614 5.629 3.575 6.058 3.575 6.5C3.575 6.942 3.614 7.371 3.666 7.8H1.469ZM6.5 1.3195C7.0395 2.0995 7.475 2.9705 7.7415 3.9H4.81C5.0765 2.9705 5.9605 2.0995 6.5 1.3195ZM10.998 3.9H9.0805C8.87706 3.09495 8.57582 2.31783 8.1835 1.586C9.3795 1.9955 10.374 2.821 10.998 3.9ZM6.5 0C2.9055 0 0 2.925 0 6.5C0 8.22391 0.684819 9.87721 1.90381 11.0962C2.50739 11.6998 3.22394 12.1786 4.01256 12.5052C4.80117 12.8319 5.64641 13 6.5 13C8.22391 13 9.87721 12.3152 11.0962 11.0962C12.3152 9.87721 13 8.22391 13 6.5C13 5.64641 12.8319 4.80117 12.5052 4.01256C12.1786 3.22394 11.6998 2.50739 11.0962 1.90381C10.4926 1.30023 9.77606 0.821439 8.98744 0.494783C8.19883 0.168127 7.35359 0 6.5 0Z" fill="black"/>
</svg>
