<svg width="116" height="24" viewBox="0 0 116 24" fill="none" xmlns="http://www.w3.org/2000/svg">
<path d="M12.0781 13.5L12.7344 9.1875H8.5625V6.375C8.5625 5.15625 9.125 4.03125 11 4.03125H12.9219V0.328125C12.9219 0.328125 11.1875 0 9.54688 0C6.125 0 3.875 2.10938 3.875 5.85938V9.1875H0.03125V13.5H3.875V24H8.5625V13.5H12.0781ZM63.6406 7.125C64.5781 6.42188 65.4219 5.57812 66.0781 4.59375C65.2344 4.96875 64.25 5.25 63.2656 5.34375C64.2969 4.73438 65.0469 3.79688 65.4219 2.625C64.4844 3.1875 63.4062 3.60938 62.3281 3.84375C61.3906 2.85938 60.125 2.29688 58.7188 2.29688C56 2.29688 53.7969 4.5 53.7969 7.21875C53.7969 7.59375 53.8438 7.96875 53.9375 8.34375C49.8594 8.10938 46.2031 6.14062 43.7656 3.1875C43.3438 3.89062 43.1094 4.73438 43.1094 5.67188C43.1094 7.35938 43.9531 8.85938 45.3125 9.75C44.5156 9.70312 43.7188 9.51562 43.0625 9.14062V9.1875C43.0625 11.5781 44.75 13.5469 47 14.0156C46.625 14.1094 46.1562 14.2031 45.7344 14.2031C45.4062 14.2031 45.125 14.1562 44.7969 14.1094C45.4062 16.0781 47.2344 17.4844 49.3906 17.5312C47.7031 18.8438 45.5938 19.6406 43.2969 19.6406C42.875 19.6406 42.5 19.5938 42.125 19.5469C44.2812 20.9531 46.8594 21.75 49.6719 21.75C58.7188 21.75 63.6406 14.2969 63.6406 7.78125C63.6406 7.54688 63.6406 7.35938 63.6406 7.125ZM104.75 6.60938C101.75 6.60938 99.3594 9.04688 99.3594 12C99.3594 15 101.75 17.3906 104.75 17.3906C107.703 17.3906 110.141 15 110.141 12C110.141 9.04688 107.703 6.60938 104.75 6.60938ZM104.75 15.5156C102.828 15.5156 101.234 13.9688 101.234 12C101.234 10.0781 102.781 8.53125 104.75 8.53125C106.672 8.53125 108.219 10.0781 108.219 12C108.219 13.9688 106.672 15.5156 104.75 15.5156ZM111.594 6.42188C111.594 5.71875 111.031 5.15625 110.328 5.15625C109.625 5.15625 109.062 5.71875 109.062 6.42188C109.062 7.125 109.625 7.6875 110.328 7.6875C111.031 7.6875 111.594 7.125 111.594 6.42188ZM115.156 7.6875C115.062 6 114.688 4.5 113.469 3.28125C112.25 2.0625 110.75 1.6875 109.062 1.59375C107.328 1.5 102.125 1.5 100.391 1.59375C98.7031 1.6875 97.25 2.0625 95.9844 3.28125C94.7656 4.5 94.3906 6 94.2969 7.6875C94.2031 9.42188 94.2031 14.625 94.2969 16.3594C94.3906 18.0469 94.7656 19.5 95.9844 20.7656C97.25 21.9844 98.7031 22.3594 100.391 22.4531C102.125 22.5469 107.328 22.5469 109.062 22.4531C110.75 22.3594 112.25 21.9844 113.469 20.7656C114.688 19.5 115.062 18.0469 115.156 16.3594C115.25 14.625 115.25 9.42188 115.156 7.6875ZM112.906 18.1875C112.578 19.125 111.828 19.8281 110.938 20.2031C109.531 20.7656 106.25 20.625 104.75 20.625C103.203 20.625 99.9219 20.7656 98.5625 20.2031C97.625 19.8281 96.9219 19.125 96.5469 18.1875C95.9844 16.8281 96.125 13.5469 96.125 12C96.125 10.5 95.9844 7.21875 96.5469 5.8125C96.9219 4.92188 97.625 4.21875 98.5625 3.84375C99.9219 3.28125 103.203 3.42188 104.75 3.42188C106.25 3.42188 109.531 3.28125 110.938 3.84375C111.828 4.17188 112.531 4.92188 112.906 5.8125C113.469 7.21875 113.328 10.5 113.328 12C113.328 13.5469 113.469 16.8281 112.906 18.1875Z" fill="white"/>
</svg>
