<svg width="101" height="12" viewBox="0 0 101 12" fill="none" xmlns="http://www.w3.org/2000/svg">
<path d="M11.7344 2.02344C10.375 0.875 8.28906 1.03906 7 2.375C5.6875 1.03906 3.60156 0.875 2.24219 2.02344C0.484375 3.5 0.742188 5.91406 2.00781 7.20312L6.10938 11.3984C6.34375 11.6328 6.64844 11.7734 7 11.7734C7.32812 11.7734 7.63281 11.6328 7.86719 11.3984L11.9922 7.20312C13.2344 5.91406 13.4922 3.5 11.7344 2.02344ZM11.1719 6.40625L7.07031 10.6016C7.02344 10.6484 6.97656 10.6484 6.90625 10.6016L2.80469 6.40625C1.9375 5.53906 1.77344 3.89844 2.96875 2.89062C3.88281 2.11719 5.28906 2.23438 6.17969 3.125L7 3.96875L7.82031 3.125C8.6875 2.23438 10.0938 2.11719 11.0078 2.86719C12.2031 3.89844 12.0391 5.53906 11.1719 6.40625ZM22.3984 6.21875C23.4062 5.11719 23.8281 4.27344 23.8281 3.28906C23.8281 1.90625 22.8438 1.03906 21.2734 1.03906C20.2422 1.03906 19.1172 1.46094 18.4609 2.09375L18.8359 2.86719C19.6328 2.21094 20.4297 1.88281 21.25 1.88281C22.2578 1.88281 22.8203 2.39844 22.8203 3.33594C22.8203 4.0625 22.4688 4.74219 21.6719 5.63281L18.6719 8.9375V9.6875H24.1797V8.86719H19.9609L22.3984 6.21875ZM25.5625 5.42188C25.5625 8.28125 26.5938 9.78125 28.5625 9.78125C30.5078 9.78125 31.5391 8.28125 31.5391 5.39844C31.5391 2.5625 30.5078 1.03906 28.5625 1.03906C26.5938 1.03906 25.5625 2.53906 25.5625 5.42188ZM30.5547 5.39844C30.5547 7.83594 29.8984 8.96094 28.5625 8.96094C27.2031 8.96094 26.5703 7.8125 26.5703 5.39844C26.5703 2.98438 27.2031 1.88281 28.5625 1.88281C29.9219 1.88281 30.5547 2.98438 30.5547 5.39844ZM38.125 3.66406H36.9062L34.0469 6.42969V0.851562H33.0859V9.6875H34.0469V6.78125L37.1641 9.6875H38.4297L35.1016 6.54688L38.125 3.66406ZM60.1797 3.875C59.9219 3.89844 59.6641 3.92188 59.4297 3.99219C59.5469 4.17969 59.5938 4.41406 59.6172 4.625C59.6172 5.35156 59.0078 5.9375 58.3047 5.9375C58.0703 5.9375 57.8359 5.89062 57.6719 5.77344C57.6016 6.00781 57.5547 6.24219 57.5547 6.5C57.5547 7.95312 58.7266 9.125 60.1797 9.125C61.6328 9.125 62.8047 7.95312 62.8047 6.5C62.8047 5.07031 61.6328 3.89844 60.1797 3.89844V3.875ZM66.8359 6.17188C65.5703 3.6875 63.0391 2 60.1797 2C57.2969 2 54.7656 3.6875 53.5 6.17188C53.4531 6.26562 53.4297 6.38281 53.4297 6.5C53.4297 6.64062 53.4531 6.75781 53.5 6.85156C54.7656 9.33594 57.2969 11 60.1797 11C63.0391 11 65.5703 9.33594 66.8359 6.85156C66.8828 6.75781 66.9062 6.64062 66.9062 6.52344C66.9062 6.38281 66.8828 6.26562 66.8359 6.17188ZM60.1797 9.875C57.8594 9.875 55.7266 8.58594 54.6016 6.5C55.7266 4.41406 57.8594 3.125 60.1797 3.125C62.4766 3.125 64.6094 4.41406 65.7344 6.5C64.6094 8.58594 62.4766 9.875 60.1797 9.875ZM75.4609 1.13281L73.2812 2.53906V3.47656L75.0391 2.375V8.86719H73.1641V9.6875H77.9219V8.86719H76.0234V1.13281H75.4609ZM80.0781 5.42188C80.0781 8.28125 81.1094 9.78125 83.0781 9.78125C85.0234 9.78125 86.0547 8.28125 86.0547 5.39844C86.0547 2.5625 85.0234 1.03906 83.0781 1.03906C81.1094 1.03906 80.0781 2.53906 80.0781 5.42188ZM85.0703 5.39844C85.0703 7.83594 84.4141 8.96094 83.0781 8.96094C81.7188 8.96094 81.0859 7.8125 81.0859 5.39844C81.0859 2.98438 81.7188 1.88281 83.0781 1.88281C84.4375 1.88281 85.0703 2.98438 85.0703 5.39844ZM87.2734 5.42188C87.2734 8.28125 88.3047 9.78125 90.2734 9.78125C92.2188 9.78125 93.25 8.28125 93.25 5.39844C93.25 2.5625 92.2188 1.03906 90.2734 1.03906C88.3047 1.03906 87.2734 2.53906 87.2734 5.42188ZM92.2656 5.39844C92.2656 7.83594 91.6094 8.96094 90.2734 8.96094C88.9141 8.96094 88.2812 7.8125 88.2812 5.39844C88.2812 2.98438 88.9141 1.88281 90.2734 1.88281C91.6328 1.88281 92.2656 2.98438 92.2656 5.39844ZM99.8359 3.66406H98.6172L95.7578 6.42969V0.851562H94.7969V9.6875H95.7578V6.78125L98.875 9.6875H100.141L96.8125 6.54688L99.8359 3.66406Z" fill="white"/>
</svg>
