<svg width="209" height="21" viewBox="0 0 209 21" fill="none" xmlns="http://www.w3.org/2000/svg">
<path d="M9.75 6.00781C7.25 6.00781 5.25781 8.03906 5.25781 10.5C5.25781 13 7.25 14.9922 9.75 14.9922C12.2109 14.9922 14.2422 13 14.2422 10.5C14.2422 8.03906 12.2109 6.00781 9.75 6.00781ZM9.75 13.4297C8.14844 13.4297 6.82031 12.1406 6.82031 10.5C6.82031 8.89844 8.10938 7.60938 9.75 7.60938C11.3516 7.60938 12.6406 8.89844 12.6406 10.5C12.6406 12.1406 11.3516 13.4297 9.75 13.4297ZM15.4531 5.85156C15.4531 5.26562 14.9844 4.79688 14.3984 4.79688C13.8125 4.79688 13.3438 5.26562 13.3438 5.85156C13.3438 6.4375 13.8125 6.90625 14.3984 6.90625C14.9844 6.90625 15.4531 6.4375 15.4531 5.85156ZM18.4219 6.90625C18.3438 5.5 18.0312 4.25 17.0156 3.23438C16 2.21875 14.75 1.90625 13.3438 1.82812C11.8984 1.75 7.5625 1.75 6.11719 1.82812C4.71094 1.90625 3.5 2.21875 2.44531 3.23438C1.42969 4.25 1.11719 5.5 1.03906 6.90625C0.960938 8.35156 0.960938 12.6875 1.03906 14.1328C1.11719 15.5391 1.42969 16.75 2.44531 17.8047C3.5 18.8203 4.71094 19.1328 6.11719 19.2109C7.5625 19.2891 11.8984 19.2891 13.3438 19.2109C14.75 19.1328 16 18.8203 17.0156 17.8047C18.0312 16.75 18.3438 15.5391 18.4219 14.1328C18.5 12.6875 18.5 8.35156 18.4219 6.90625ZM16.5469 15.6562C16.2734 16.4375 15.6484 17.0234 14.9062 17.3359C13.7344 17.8047 11 17.6875 9.75 17.6875C8.46094 17.6875 5.72656 17.8047 4.59375 17.3359C3.8125 17.0234 3.22656 16.4375 2.91406 15.6562C2.44531 14.5234 2.5625 11.7891 2.5625 10.5C2.5625 9.25 2.44531 6.51562 2.91406 5.34375C3.22656 4.60156 3.8125 4.01562 4.59375 3.70312C5.72656 3.23438 8.46094 3.35156 9.75 3.35156C11 3.35156 13.7344 3.23438 14.9062 3.70312C15.6484 3.97656 16.2344 4.60156 16.5469 5.34375C17.0156 6.51562 16.8984 9.25 16.8984 10.5C16.8984 11.7891 17.0156 14.5234 16.5469 15.6562ZM60.6484 11.75L61.1953 8.15625H57.7188V5.8125C57.7188 4.79688 58.1875 3.85938 59.75 3.85938H61.3516V0.773438C61.3516 0.773438 59.9062 0.5 58.5391 0.5C55.6875 0.5 53.8125 2.25781 53.8125 5.38281V8.15625H50.6094V11.75H53.8125V20.5H57.7188V11.75H60.6484ZM101.469 0.773438C97.4453 0.773438 93.5 3.42969 93.5 7.76562C93.5 10.5 95.0234 12.0625 95.9609 12.0625C96.3516 12.0625 96.5859 11.0078 96.5859 10.6953C96.5859 10.3438 95.6484 9.5625 95.6484 8.03906C95.6484 4.91406 98.0312 2.6875 101.117 2.6875C103.812 2.6875 105.766 4.21094 105.766 6.98438C105.766 9.05469 104.945 12.9219 102.25 12.9219C101.273 12.9219 100.414 12.2188 100.414 11.2422C100.414 9.75781 101.469 8.3125 101.469 6.78906C101.469 4.21094 97.7969 4.67969 97.7969 7.80469C97.7969 8.46875 97.875 9.17188 98.1875 9.79688C97.6406 12.1016 96.5469 15.5781 96.5469 17.9609C96.5469 18.7031 96.625 19.4062 96.7031 20.1484C96.8203 20.3047 96.7812 20.3047 96.9766 20.2266C98.9297 17.5312 98.8906 16.9844 99.75 13.4688C100.258 14.3672 101.469 14.875 102.484 14.875C106.625 14.875 108.5 10.8125 108.5 7.17969C108.5 3.3125 105.141 0.773438 101.469 0.773438ZM157.68 6.4375C158.461 5.85156 159.164 5.14844 159.711 4.32812C159.008 4.64062 158.188 4.875 157.367 4.95312C158.227 4.44531 158.852 3.66406 159.164 2.6875C158.383 3.15625 157.484 3.50781 156.586 3.70312C155.805 2.88281 154.75 2.41406 153.578 2.41406C151.312 2.41406 149.477 4.25 149.477 6.51562C149.477 6.82812 149.516 7.14062 149.594 7.45312C146.195 7.25781 143.148 5.61719 141.117 3.15625C140.766 3.74219 140.57 4.44531 140.57 5.22656C140.57 6.63281 141.273 7.88281 142.406 8.625C141.742 8.58594 141.078 8.42969 140.531 8.11719V8.15625C140.531 10.1484 141.938 11.7891 143.812 12.1797C143.5 12.2578 143.109 12.3359 142.758 12.3359C142.484 12.3359 142.25 12.2969 141.977 12.2578C142.484 13.8984 144.008 15.0703 145.805 15.1094C144.398 16.2031 142.641 16.8672 140.727 16.8672C140.375 16.8672 140.062 16.8281 139.75 16.7891C141.547 17.9609 143.695 18.625 146.039 18.625C153.578 18.625 157.68 12.4141 157.68 6.98438C157.68 6.78906 157.68 6.63281 157.68 6.4375ZM208.461 6.51562C208.578 4.25 207.719 3.07812 205.922 3.03906C203.5 2.96094 201.859 4.32812 201 7.14062C202.094 6.67188 203.656 6.55469 203.5 8.35156C203.422 8.9375 203.031 9.83594 202.289 10.9688C200.258 14.2109 199.75 13.1172 198.656 6.04688C198.344 4.05469 197.484 3.11719 196.117 3.23438C194.906 3.35156 192.992 5.30469 191 7.10156L191.82 8.15625C192.602 7.60938 193.031 7.33594 193.188 7.33594C194.32 7.33594 194.906 10.2656 196.273 15.3438C196.977 17.2188 197.836 18.1562 198.852 18.1562C200.531 18.1562 202.523 16.5938 204.906 13.5078C207.211 10.5391 208.383 8.23438 208.461 6.51562Z" fill="white"/>
</svg>
